<?xml version="1.0" encoding="UTF-8" standalone="no"?>
<!-- Created with Inkscape (http://www.inkscape.org/) -->

<svg
   version="1.1"
   id="svg1"
   width="4000"
   height="2666.6667"
   viewBox="0 0 4000 2666.6667"
   sodipodi:docname="11236015_11193.eps"
   xmlns:inkscape="http://www.inkscape.org/namespaces/inkscape"
   xmlns:sodipodi="http://sodipodi.sourceforge.net/DTD/sodipodi-0.dtd"
   xmlns="http://www.w3.org/2000/svg"
   xmlns:svg="http://www.w3.org/2000/svg">
  <defs
     id="defs1">
    <clipPath
       clipPathUnits="userSpaceOnUse"
       id="clipPath16">
      <path
         d="m 25605.2,3205.9 -4543.5,-25.7 -390,1.3 -12669.39,41.4 -4178.89,13.7 c 0,0 -1579.89,2780.4 -638.12,5578.8 92.82,276.3 210.24,552.6 356.13,826.4 97.1,182.2 206.88,363.3 330.3,542.6 12.7,18.3 25.49,36.6 38.45,55 177.13,250.7 381.71,497.8 616.73,738.6 1793.09,1838.3 3446.7,2087.8 4803.39,1962.7 1082.6,-99.5 1976,-437.6 2600.4,-396.8 1406.9,91.8 1858,2986.5 6020,3859.6 830.4,174.2 1762.5,275.4 2693.5,276.4 2602.2,3 5196.1,-775.7 5537.8,-2925.9 49.2,-310.3 51.6,-648.9 0.4,-1017.9 -36,-260.7 -99,-536.5 -191.2,-828.2 -170.7,-541.3 -442,-1136.9 -828.7,-1790.8 -1235,-2087.3 -224.8,-3039.7 1235.4,-3867.5 60,-34 119.8,-68.9 179.1,-104.6 1015.3,-612.3 -971.8,-2928.5 -971.8,-2939.1"
         transform="translate(0,2.5000001e-4)"
         id="path16" />
    </clipPath>
    <clipPath
       clipPathUnits="userSpaceOnUse"
       id="clipPath18">
      <path
         d="m 25605.2,3205.9 -4543.5,-25.7 -390,1.3 -12669.39,41.4 -4178.89,13.7 c 0,0 -1579.89,2780.4 -638.12,5578.8 92.82,276.3 210.24,552.6 356.13,826.4 97.1,182.2 206.88,363.3 330.3,542.6 12.7,18.3 25.49,36.6 38.45,55 177.13,250.7 381.71,497.8 616.73,738.6 1793.09,1838.3 3446.7,2087.8 4803.39,1962.7 1082.6,-99.5 1976,-437.6 2600.4,-396.8 1406.9,91.8 1858,2986.5 6020,3859.6 830.4,174.2 1762.5,275.4 2693.5,276.4 2602.2,3 5196.1,-775.7 5537.8,-2925.9 49.2,-310.3 51.6,-648.9 0.4,-1017.9 -36,-260.7 -99,-536.5 -191.2,-828.2 -170.7,-541.3 -442,-1136.9 -828.7,-1790.8 -1235,-2087.3 -224.8,-3039.7 1235.4,-3867.5 60,-34 119.8,-68.9 179.1,-104.6 1015.3,-612.3 -971.8,-2928.5 -971.8,-2939.1"
         transform="translate(0,2.5000001e-4)"
         id="path18" />
    </clipPath>
    <clipPath
       clipPathUnits="userSpaceOnUse"
       id="clipPath20">
      <path
         d="m 25605.2,3205.9 -4543.5,-25.7 -390,1.3 -12669.39,41.4 -4178.89,13.7 c 0,0 -1579.89,2780.4 -638.12,5578.8 92.82,276.3 210.24,552.6 356.13,826.4 97.1,182.2 206.88,363.3 330.3,542.6 12.7,18.3 25.49,36.6 38.45,55 177.13,250.7 381.71,497.8 616.73,738.6 1793.09,1838.3 3446.7,2087.8 4803.39,1962.7 1082.6,-99.5 1976,-437.6 2600.4,-396.8 1406.9,91.8 1858,2986.5 6020,3859.6 830.4,174.2 1762.5,275.4 2693.5,276.4 2602.2,3 5196.1,-775.7 5537.8,-2925.9 49.2,-310.3 51.6,-648.9 0.4,-1017.9 -36,-260.7 -99,-536.5 -191.2,-828.2 -170.7,-541.3 -442,-1136.9 -828.7,-1790.8 -1235,-2087.3 -224.8,-3039.7 1235.4,-3867.5 60,-34 119.8,-68.9 179.1,-104.6 1015.3,-612.3 -971.8,-2928.5 -971.8,-2939.1"
         transform="translate(0,2.5000001e-4)"
         id="path20" />
    </clipPath>
    <clipPath
       clipPathUnits="userSpaceOnUse"
       id="clipPath22">
      <path
         d="m 25605.2,3205.9 -4543.5,-25.7 -390,1.3 -12669.39,41.4 -4178.89,13.7 c 0,0 -1579.89,2780.4 -638.12,5578.8 92.82,276.3 210.24,552.6 356.13,826.4 97.1,182.2 206.88,363.3 330.3,542.6 12.7,18.3 25.49,36.6 38.45,55 177.13,250.7 381.71,497.8 616.73,738.6 1793.09,1838.3 3446.7,2087.8 4803.39,1962.7 1082.6,-99.5 1976,-437.6 2600.4,-396.8 1406.9,91.8 1858,2986.5 6020,3859.6 830.4,174.2 1762.5,275.4 2693.5,276.4 2602.2,3 5196.1,-775.7 5537.8,-2925.9 49.2,-310.3 51.6,-648.9 0.4,-1017.9 -36,-260.7 -99,-536.5 -191.2,-828.2 -170.7,-541.3 -442,-1136.9 -828.7,-1790.8 -1235,-2087.3 -224.8,-3039.7 1235.4,-3867.5 60,-34 119.8,-68.9 179.1,-104.6 1015.3,-612.3 -971.8,-2928.5 -971.8,-2939.1"
         transform="translate(0,2.5000001e-4)"
         id="path22" />
    </clipPath>
    <clipPath
       clipPathUnits="userSpaceOnUse"
       id="clipPath24">
      <path
         d="m 25605.2,3205.9 -4543.5,-25.7 -390,1.3 -12669.39,41.4 -4178.89,13.7 c 0,0 -1579.89,2780.4 -638.12,5578.8 92.82,276.3 210.24,552.6 356.13,826.4 97.1,182.2 206.88,363.3 330.3,542.6 12.7,18.3 25.49,36.6 38.45,55 177.13,250.7 381.71,497.8 616.73,738.6 1793.09,1838.3 3446.7,2087.8 4803.39,1962.7 1082.6,-99.5 1976,-437.6 2600.4,-396.8 1406.9,91.8 1858,2986.5 6020,3859.6 830.4,174.2 1762.5,275.4 2693.5,276.4 2602.2,3 5196.1,-775.7 5537.8,-2925.9 49.2,-310.3 51.6,-648.9 0.4,-1017.9 -36,-260.7 -99,-536.5 -191.2,-828.2 -170.7,-541.3 -442,-1136.9 -828.7,-1790.8 -1235,-2087.3 -224.8,-3039.7 1235.4,-3867.5 60,-34 119.8,-68.9 179.1,-104.6 1015.3,-612.3 -971.8,-2928.5 -971.8,-2939.1"
         transform="translate(0,2.5000001e-4)"
         id="path24" />
    </clipPath>
  </defs>
  <sodipodi:namedview
     id="namedview1"
     pagecolor="#ffffff"
     bordercolor="#000000"
     borderopacity="0.25"
     inkscape:showpageshadow="2"
     inkscape:pageopacity="0.0"
     inkscape:pagecheckerboard="0"
     inkscape:deskcolor="#d1d1d1">
    <inkscape:page
       x="0"
       y="0"
       inkscape:label="1"
       id="page1"
       width="4000"
       height="2666.6667"
       margin="0"
       bleed="0" />
  </sodipodi:namedview>
  <g
     id="g1"
     inkscape:groupmode="layer"
     inkscape:label="1">
    <g
       id="group-R5">
      <path
         id="path2"
         d="M 0,0 H 30000 V 20000 H 0 Z"
         style="fill:#ffffff;fill-opacity:1;fill-rule:nonzero;stroke:none"
         transform="matrix(0.13333333,0,0,-0.13333333,0,2666.6667)" />
      <path
         id="path3"
         d="m 27055.2,5415.3 c 268.4,-1148.1 -618.3,-2243.1 -1797.3,-2241.4 l -4196.2,6.3 -390,1.3 -12669.39,41.4 -4178.89,13.7 c 0,0 -1579.89,2780.4 -638.12,5578.8 92.82,276.3 210.24,552.6 356.13,826.4 244.32,458.4 567.5,907.9 985.48,1336.2 1793.09,1838.3 3446.7,2087.8 4803.39,1962.7 1082.6,-99.5 1976,-437.6 2600.4,-396.8 1406.9,91.8 1858,2986.5 6020,3859.6 830.4,174.2 1762.5,275.4 2693.5,276.4 2602.2,3 5196.1,-775.7 5537.8,-2925.9 97.6,-614.7 -3.1,-1252.3 -190.8,-1846.1 -170.7,-541.3 -442,-1136.9 -828.7,-1790.8 -1235,-2087.3 -224.8,-3039.7 1235.4,-3867.5 60,-34 119.8,-68.9 179.1,-104.6 260.5,-157.1 406.2,-421.5 478.2,-729.7"
         style="fill:#ebf3fa;fill-opacity:1;fill-rule:nonzero;stroke:none"
         transform="matrix(0.13333333,0,0,-0.13333333,0,2666.6667)" />
      <path
         id="path4"
         d="m 25333.8,3201.8 c 981.7,0 1767.6,805.8 1767.6,1787.5 v 0.1 l -4620.8,2210.1 v 1152.1 h -86.4 v 2394.8 H 21065.5 V 8351.6 H 19491.1 V 9894.9 H 17093.8 V 12780 H 15584 V 9028 h -471.2 v 3194.5 H 13900.9 V 9028 H 11108.7 V 6105.7 H 9691.42 V 8081.5 H 8370.06 V 6105.7 h -382.5 v 4114.1 H 6532.33 V 6105.7 H 6009.7 V 3186.4 l 19324.1,15.4"
         style="fill:#ddeaf4;fill-opacity:1;fill-rule:nonzero;stroke:none"
         transform="matrix(0.13333333,0,0,-0.13333333,0,2666.6667)" />
      <path
         id="path5"
         d="m 7477.96,9772.4 c -16.21,60.4 -25.14,125.8 -25.14,194.2 0,305.1 176.71,552.5 394.69,552.5 31.97,0 63.01,-5.5 92.77,-15.5 35.46,825.9 397.09,1475.1 838.05,1475.1 419.98,0 768.02,-588.9 830.82,-1358.5 312.44,-212.2 526.65,-646.6 526.65,-1148 0,-239.1 -48.8,-462.9 -133.6,-654.7 290,-178.7 474.6,-448 474.6,-749.5 0,-537.8 -587.97,-973.9 -1313.33,-973.9 -542.96,0 -1008.94,244.3 -1208.97,592.8 -55.61,-13.1 -113.06,-20.1 -171.85,-20.1 -493.64,0 -893.82,485.9 -893.82,1085.2 0,469.4 245.51,869.1 589.13,1020.4"
         style="fill:#acd29a;fill-opacity:1;fill-rule:nonzero;stroke:none"
         transform="matrix(0.13333333,0,0,-0.13333333,0,2666.6667)" />
      <path
         id="path6"
         d="m 7477.96,9772.4 c 0,0 869.59,338.5 1532.47,-258 662.88,-596.6 1123.97,344.3 902.71,781.4 138.96,-223.1 222.66,-510.3 222.66,-823.6 0,-239.1 -48.8,-462.9 -133.6,-654.7 290,-178.7 474.6,-448 474.6,-749.5 0,-537.8 -587.97,-973.9 -1313.33,-973.9 -542.96,0 -1008.94,244.3 -1208.97,592.8 -55.61,-13.1 -113.06,-20.1 -171.85,-20.1 -493.64,0 -893.82,485.9 -893.82,1085.2 0,469.4 245.51,869.1 589.13,1020.4"
         style="fill:#88b374;fill-opacity:1;fill-rule:nonzero;stroke:none"
         transform="matrix(0.13333333,0,0,-0.13333333,0,2666.6667)" />
      <path
         id="path7"
         d="m 8500.16,3394.1 c 34.21,0 61.95,9.1 61.95,43.3 v 6710.5 c 0,34.3 -27.74,62 -61.95,62 -34.22,0 -61.96,-27.7 -61.96,-62 V 3437.4 c 0,-34.2 27.74,-43.3 61.96,-43.3"
         style="fill:#7a3909;fill-opacity:1;fill-rule:nonzero;stroke:none"
         transform="matrix(0.13333333,0,0,-0.13333333,0,2666.6667)" />
      <path
         id="path8"
         d="m 8500.16,7764.5 c 175.78,0 324.45,62.6 441.89,186.1 328.49,345.4 296.93,1051.1 295.43,1080.9 -1.72,34.2 -30.76,60.6 -64.99,58.8 -34.17,-1.7 -60.47,-30.8 -58.76,-65 0.33,-6.8 30.27,-682.8 -261.63,-989.5 -94.41,-99.2 -209.53,-147.4 -351.94,-147.4 -34.22,0 -61.96,-27.8 -61.96,-62 0,-34.2 27.74,-61.9 61.96,-61.9"
         style="fill:#7a3909;fill-opacity:1;fill-rule:nonzero;stroke:none"
         transform="matrix(0.13333333,0,0,-0.13333333,0,2666.6667)" />
      <path
         id="path9"
         d="m 8491.48,6359.5 c 4.15,0 8.31,0.2 12.48,0.4 34.15,2.1 60.13,31.5 58.03,65.7 -2.1,34.1 -31.49,60.1 -65.64,58 -23.63,-1.5 -47.25,8.6 -72.09,30.9 -76.53,68.6 -221.76,309.9 -334.69,1155.8 -65.31,489.2 -87.73,945.3 -87.96,949.9 -1.64,34.2 -30.57,60.7 -64.85,58.9 -34.18,-1.6 -60.55,-30.7 -58.9,-64.9 0.22,-4.6 22.91,-466 88.9,-960.3 38.91,-291.4 85.1,-537.6 137.28,-731.6 68.48,-254.6 146.17,-418.2 237.53,-500.1 46.47,-41.6 96.85,-62.7 149.91,-62.7"
         style="fill:#7a3909;fill-opacity:1;fill-rule:nonzero;stroke:none"
         transform="matrix(0.13333333,0,0,-0.13333333,0,2666.6667)" />
      <path
         id="path10"
         d="m 4670.9,11052.4 c 185.05,362.5 271.45,766.9 262.36,1173.8 -21.77,973.9 270.83,2317.4 989.98,2317.4 865.77,0 934.32,-1696.6 664.43,-2651.6 -53.6,-189.6 20.85,-393.6 187.8,-498.3 12.91,-8.1 22.41,-12.9 27.07,-12.9 217.98,0 394.69,-237.1 394.69,-529.6 0,-65.6 -8.93,-128.3 -25.14,-186.2 343.62,-145 589.13,-528.2 589.13,-978.2 0,-574.6 -400.18,-1040.3 -893.82,-1040.3 -395.94,0 -731.69,299.7 -849.12,714.7 -154.63,-136.9 -342.03,-217.1 -544.03,-217.1 -530.17,0 -959.96,552.1 -959.96,1233.1 0,249.3 57.59,481.3 156.61,675.2"
         style="fill:#acd29a;fill-opacity:1;fill-rule:nonzero;stroke:none"
         transform="matrix(0.13333333,0,0,-0.13333333,0,2666.6667)" />
      <path
         id="path11"
         d="m 5235.86,10916.2 c 896.46,120.8 1029.64,-854.9 1029.64,-854.9 1061.92,483.2 1533.4,-274.8 1533.4,-274.8 l 26.46,-226.6 c -23.69,-549.9 -479.57,-913.4 -957.96,-913.4 -395.94,0 -731.69,299.7 -849.11,714.7 -154.64,-136.9 -342.04,-217.1 -544.04,-217.1 -318.56,0 -600.82,199.4 -775.44,506.2 -6,19.3 -351.73,1146.1 537.05,1265.9"
         style="fill:#88b374;fill-opacity:1;fill-rule:nonzero;stroke:none"
         transform="matrix(0.13333333,0,0,-0.13333333,0,2666.6667)" />
      <path
         id="path12"
         d="m 5980.11,3394.1 c 34.21,0 67.03,-21.8 67.03,12.4 v 6710.6 c 0,34.2 -27.74,61.9 -61.95,61.9 -34.21,0 -61.95,-27.7 -61.95,-61.9 V 3406.5 c 0,-34.2 22.65,-12.4 56.87,-12.4"
         style="fill:#7a3909;fill-opacity:1;fill-rule:nonzero;stroke:none"
         transform="matrix(0.13333333,0,0,-0.13333333,0,2666.6667)" />
      <path
         id="path13"
         d="m 5985.19,7733.6 c 191.23,0 355.29,112.6 487.63,334.7 99.72,167.4 182.3,399 245.43,688.3 106.27,487.2 121.8,980.8 121.95,985.7 1,34.2 -25.91,62.8 -60.11,63.8 -34.43,0.9 -62.74,-25.9 -63.74,-60.1 -0.15,-4.9 -15.45,-488.4 -119.47,-964.4 -92.13,-421.6 -273.04,-924.1 -611.69,-924.1 -34.21,0 -61.95,-27.8 -61.95,-62 0,-34.2 27.74,-61.9 61.95,-61.9"
         style="fill:#7a3909;fill-opacity:1;fill-rule:nonzero;stroke:none"
         transform="matrix(0.13333333,0,0,-0.13333333,0,2666.6667)" />
      <path
         id="path14"
         d="m 5979.41,6328.7 c 3.33,0 6.53,0.1 9.58,0.3 34.15,2.1 60.14,31.5 58.04,65.7 -2.1,34.1 -31.53,60.1 -65.64,58 -7.87,-0.4 -20.55,1 -39.37,19 -77.31,74 -215.3,380.7 -270.95,1602.5 -32.07,704.4 -20.17,1375.3 -20.04,1382 0.64,34.2 -26.59,62.4 -60.8,63 -34.22,0.8 -62.45,-26.5 -63.08,-60.7 -0.13,-6.8 -12.11,-681.6 20.15,-1389.9 18.99,-417 49.4,-764.3 90.37,-1032.1 53.66,-350.7 125.17,-564.8 218.63,-654.3 45.14,-43.2 90.4,-53.5 123.11,-53.5"
         style="fill:#7a3909;fill-opacity:1;fill-rule:nonzero;stroke:none"
         transform="matrix(0.13333333,0,0,-0.13333333,0,2666.6667)" />
      <path
         id="path15"
         d="m 5529.51,9145.3 c 16.21,72.7 25.14,151.4 25.14,233.6 0,367 -176.71,664.5 -394.69,664.5 -31.97,0 -63.01,-6.6 -92.77,-18.6 -35.46,993.3 -397.1,1774 -838.05,1774 -419.98,0 -768.03,-708.2 -830.82,-1633.8 -312.45,-255.2 -526.62,-777.6 -526.62,-1380.7 0,-287.6 48.74,-556.7 133.55,-787.4 -289.97,-214.9 -474.62,-538.9 -474.62,-901.4 0,-646.9 588.01,-1171.3 1313.36,-1171.3 542.97,0 1008.95,293.8 1208.97,713 55.62,-15.9 113.07,-24.2 171.85,-24.2 493.65,0 893.83,584.3 893.83,1305.1 0,564.5 -245.51,1045.3 -589.13,1227.2"
         style="fill:#acd29a;fill-opacity:1;fill-rule:nonzero;stroke:none"
         transform="matrix(0.13333333,0,0,-0.13333333,0,2666.6667)"
         clip-path="url(#clipPath16)" />
      <path
         id="path17"
         d="m 2740.3,7730.7 c 140.68,194 198.23,435 160.9,671.7 -19.26,122.2 -29.5,250.1 -29.5,381.9 0,72.3 3.11,143.5 9.08,213.2 1213.28,-83.4 1165.01,-1300 1165.01,-1300 0,0 1003.56,422.7 1338.08,-172.6 334.52,-595.3 -330.91,-887.7 -330.91,-887.7 -200.02,-419.2 -666,-713 -1208.96,-713 -725.36,0 -1313.37,524.4 -1313.37,1171.3 0,234.1 77.01,452.2 209.67,635.2"
         style="fill:#88b374;fill-opacity:1;fill-rule:nonzero;stroke:none"
         transform="matrix(0.13333333,0,0,-0.13333333,0,2666.6667)"
         clip-path="url(#clipPath18)" />
      <path
         id="path19"
         d="m 4242.24,3403.2 c 34.22,0 61.95,0 61.95,34.2 v 5214.3 c 0,34.2 -27.73,62 -61.95,62 -34.22,0 -61.95,-27.8 -61.95,-62 V 3437.4 c 0,-34.2 27.73,-34.2 61.95,-34.2"
         style="fill:#7a3909;fill-opacity:1;fill-rule:nonzero;stroke:none"
         transform="matrix(0.13333333,0,0,-0.13333333,0,2666.6667)"
         clip-path="url(#clipPath20)" />
      <path
         id="path21"
         d="m 4242.24,6911.3 c 175.78,0 324.45,62.7 441.89,186.2 328.49,345.4 296.93,1051 295.43,1080.9 -1.72,34.2 -30.75,60.6 -64.99,58.8 -34.16,-1.8 -60.47,-30.8 -58.75,-65 0.36,-7.4 30.14,-682.9 -261.63,-989.5 -94.41,-99.2 -209.54,-147.4 -351.95,-147.4 -34.22,0 -61.95,-27.8 -61.95,-62 0,-34.2 27.73,-62 61.95,-62"
         style="fill:#7a3909;fill-opacity:1;fill-rule:nonzero;stroke:none"
         transform="matrix(0.13333333,0,0,-0.13333333,0,2666.6667)"
         clip-path="url(#clipPath22)" />
      <path
         id="path23"
         d="m 4192.43,4884.8 c 4.14,0 8.3,0.1 12.47,0.3 34.15,2.1 60.13,31.5 58.03,65.7 -2.1,34.1 -31.51,60.1 -65.63,58 -23.63,-1.4 -47.26,8.7 -72.09,30.9 -76.53,68.6 -221.76,309.9 -334.69,1155.8 -65.31,489.2 -87.74,945.4 -87.96,949.9 -1.65,34.2 -30.59,60.6 -64.86,58.9 -34.17,-1.6 -60.55,-30.7 -58.9,-64.8 0.22,-4.6 22.91,-466 88.91,-960.4 38.9,-291.4 85.09,-537.6 137.27,-731.6 68.48,-254.6 146.18,-418.2 237.53,-500.1 46.47,-41.6 96.85,-62.6 149.92,-62.6"
         style="fill:#7a3909;fill-opacity:1;fill-rule:nonzero;stroke:none"
         transform="matrix(0.13333333,0,0,-0.13333333,0,2666.6667)"
         clip-path="url(#clipPath24)" />
      <path
         id="path25"
         d="m 15428,16496 h 123.9 l -1.1,9.7 -37.3,329.4 c -1.3,10.6 -10.3,18.6 -21,18.6 -1.3,0 -2.6,-0.1 -3.9,-0.3 -7,-0.8 -13.4,-3.8 -18.4,-8.3 -5.9,-5.4 -9.8,-12.8 -10.6,-21.2 L 15428,16496"
         style="fill:#a2c5f9;fill-opacity:1;fill-rule:nonzero;stroke:none"
         transform="matrix(0.13333333,0,0,-0.13333333,0,2666.6667)" />
      <path
         id="path26"
         d="m 15540,16570.7 4.4,-0.1 -30.9,264.5 c -1.3,10.6 -10.3,18.6 -21,18.6 -1.3,0 -2.6,-0.1 -3.9,-0.3 -1.2,-1 -2.3,-2 -3.3,-3.1 -5.5,-5.8 -8.7,-13.5 -8.8,-22 l -1.8,-190.2 c -0.4,-36.4 28.7,-66.4 65.3,-67.4"
         style="fill:#afcdfb;fill-opacity:1;fill-rule:nonzero;stroke:none"
         transform="matrix(0.13333333,0,0,-0.13333333,0,2666.6667)" />
      <path
         id="path27"
         d="M 15349.1,15030.3 V 4515.4 h 238.9 v 10514.9 h -238.9"
         style="fill:#a2c5f9;fill-opacity:1;fill-rule:nonzero;stroke:none"
         transform="matrix(0.13333333,0,0,-0.13333333,0,2666.6667)" />
      <path
         id="path28"
         d="M 15477.7,15030.3 V 4515.4 h 110.3 v 10514.9 h -110.3"
         style="fill:#afcdfb;fill-opacity:1;fill-rule:nonzero;stroke:none"
         transform="matrix(0.13333333,0,0,-0.13333333,0,2666.6667)" />
      <path
         id="path29"
         d="M 15088.1,6193.4 V 3411.3 h 760.9 v 2782.1 h -760.9"
         style="fill:#a2c5f9;fill-opacity:1;fill-rule:nonzero;stroke:none"
         transform="matrix(0.13333333,0,0,-0.13333333,0,2666.6667)" />
      <path
         id="path30"
         d="M 15395.5,6193.4 V 3411.3 h 453.5 v 2782.1 h -453.5"
         style="fill:#afcdfb;fill-opacity:1;fill-rule:nonzero;stroke:none"
         transform="matrix(0.13333333,0,0,-0.13333333,0,2666.6667)" />
      <path
         id="path31"
         d="m 15052.8,16337.3 c 0,-129.9 195.7,-235.2 437.2,-235.2 18.4,0 36.5,0.6 54.4,1.8 215.8,14.4 382.8,113.4 382.8,233.4 0,120 -167,218.9 -382.8,233.3 -17.9,1.2 -36,1.8 -54.4,1.8 -241.5,0 -437.2,-105.3 -437.2,-235.1"
         style="fill:#a2c5f9;fill-opacity:1;fill-rule:nonzero;stroke:none"
         transform="matrix(0.13333333,0,0,-0.13333333,0,2666.6667)" />
      <path
         id="path32"
         d="m 15089,14822.9 h 760.9 l 268.2,1287.5 h -1256.2 l 227.1,-1287.5"
         style="fill:#afcdfb;fill-opacity:1;fill-rule:nonzero;stroke:none"
         transform="matrix(0.13333333,0,0,-0.13333333,0,2666.6667)" />
      <path
         id="path33"
         d="m 14794,16207.4 v -123.5 h 1392 v 123.5 h -1392"
         style="fill:#a2c5f9;fill-opacity:1;fill-rule:nonzero;stroke:none"
         transform="matrix(0.13333333,0,0,-0.13333333,0,2666.6667)" />
      <path
         id="path34"
         d="m 15724.4,6193.4 h -486.2 l 71.1,215.1 c 6.3,19.1 24.2,32 44.4,32 h 227.7 c 24.7,0 47,-14.9 56.4,-37.7 l 86.6,-209.4"
         style="fill:#a2c5f9;fill-opacity:1;fill-rule:nonzero;stroke:none"
         transform="matrix(0.13333333,0,0,-0.13333333,0,2666.6667)" />
      <path
         id="path35"
         d="m 15276.3,16348.6 h 3.3 c 7.5,99.8 114.4,184.7 264.8,222 208.9,-13.9 372.2,-107.2 382.3,-222 h 70.9 l 99.5,-141.2 h 88.9 v -123.5 h -875.1 v 123.5 h -129 l 94.4,141.2"
         style="fill:#afcdfb;fill-opacity:1;fill-rule:nonzero;stroke:none"
         transform="matrix(0.13333333,0,0,-0.13333333,0,2666.6667)" />
      <path
         id="path36"
         d="m 16028.2,16047.7 h -1072.9 l 209.5,-1157.3 h 616.1 l 247.3,1157.3"
         style="fill:#c7dcf9;fill-opacity:1;fill-rule:nonzero;stroke:none"
         transform="matrix(0.13333333,0,0,-0.13333333,0,2666.6667)" />
      <path
         id="path37"
         d="m 15898.3,16323.4 c 0,0 -81.7,178 -243.1,172.6 0,0 102.7,-91.1 93.3,-172.6 -9.5,-81.5 149.8,0 149.8,0"
         style="fill:#c7dcf9;fill-opacity:1;fill-rule:nonzero;stroke:none"
         transform="matrix(0.13333333,0,0,-0.13333333,0,2666.6667)" />
      <path
         id="path38"
         d="m 14882.9,16207.4 h 1214.2 l -99.5,141.2 h -1020.3 l -94.4,-141.2"
         style="fill:#a2c5f9;fill-opacity:1;fill-rule:nonzero;stroke:none"
         transform="matrix(0.13333333,0,0,-0.13333333,0,2666.6667)" />
      <path
         id="path39"
         d="m 15957,16007.3 h -245.9 l -71.6,-1080.7 h 71.6 l 245.9,1080.7"
         style="fill:#d2e4f9;fill-opacity:1;fill-rule:nonzero;stroke:none"
         transform="matrix(0.13333333,0,0,-0.13333333,0,2666.6667)" />
      <path
         id="path40"
         d="m 23138.7,4149.5 c -795.3,-270.2 -2259.4,-964.3 -3940.9,-492.8 -1681.6,471.4 -3673,60.5 -6174.2,-449.1 -12.2,-2.4 -24.5,-4.7 -36.8,-7.1 l 13882.6,19.8 C 25802.1,4426 24361.9,4565.1 23138.7,4149.5"
         style="fill:#88b374;fill-opacity:1;fill-rule:nonzero;stroke:none"
         transform="matrix(0.13333333,0,0,-0.13333333,0,2666.6667)" />
      <path
         id="path41"
         d="M 11606.5,3583.4 C 10240,3157.8 8804.49,3671.5 6177.25,4082.5 3550,4493.4 2502.3,3199.3 2502.3,3199.3 l 12774.9,1.2 c -396.3,395 -2304.3,808.6 -3670.7,382.9"
         style="fill:#acd29a;fill-opacity:1;fill-rule:nonzero;stroke:none"
         transform="matrix(0.13333333,0,0,-0.13333333,0,2666.6667)" />
      <path
         id="path42"
         d="m 7665.95,3199.3 -2544.24,10.8 364.55,1545.7 c 77.74,329.6 266.79,626.9 532.31,837 265.53,210.2 598.27,326 936.92,326 h 3301.41 v -679 H 8388.33 L 7665.95,3199.3"
         style="fill:#afcdfb;fill-opacity:1;fill-rule:nonzero;stroke:none"
         transform="matrix(0.13333333,0,0,-0.13333333,0,2666.6667)" />
      <path
         id="path43"
         d="m 11198.4,5913 v 5.8 h 1264.5 c 43.7,0 87.3,-2 130.6,-5.8 h 1746 c 338.7,0 671.4,-115.8 936.9,-326 265.5,-210.2 454.6,-507.4 532.3,-837 l 364.4,-1544.9 -2571.8,5 -330,1389.8 c -81.3,344.6 -368.4,599.8 -712.6,639.9 H 11038.1 V 5913 h 160.3"
         style="fill:#1c468a;fill-opacity:1;fill-rule:nonzero;stroke:none"
         transform="matrix(0.13333333,0,0,-0.13333333,0,2666.6667)" />
      <path
         id="path44"
         d="M 15778.5,3181.7 15444,4599.9 c -88.9,376.8 -421.3,639.9 -808.4,639.9 H 9128.14 c -387.12,0 -719.55,-263.1 -808.41,-639.9 l -334.5,-1418.2 h -697.57 l 371.25,1574.1 c 77.74,329.6 266.78,626.9 532.31,837 265.53,210.2 598.27,326 936.92,326 h 5507.46 c 338.6,0 671.3,-115.8 936.9,-326 265.5,-210.1 454.5,-507.4 532.3,-837 L 16476,3181.7 h -697.5"
         style="fill:#4a75cb;fill-opacity:1;fill-rule:nonzero;stroke:none"
         transform="matrix(0.13333333,0,0,-0.13333333,0,2666.6667)" />
      <path
         id="path45"
         d="m 10870.5,4002.6 c -23.1,-26.5 -26.1,-56.2 -14.6,-87.9 l 0.2,-0.5 c 21.2,-58.6 91.3,-124 172.7,-189.4 10.4,-8.4 19.6,-16 27.7,-23.1 2.1,-1.8 4.2,-3.7 6.2,-5.6 1.7,-1.4 3.3,-2.9 4.8,-4.3 75.9,-70 47.4,-86 183.7,-228 155.5,-161.8 262.6,-164.7 293,-149.9 25.8,12.5 -26.5,98.3 -84.6,194.8 -2.8,4.6 -5.5,9.3 -8.4,14 -7.7,12.8 -15.4,25.9 -23.1,38.8 -68,116 -50.5,170.5 -34.4,343.2 13.1,140.4 218.4,784.3 218.4,784.3 l -298,51.3 c 0,0 -89.7,-512.7 -188.6,-591.7 -52.9,-42.1 -112,-42.6 -162.9,-73.8 -3.5,-2.1 -7.1,-4.4 -10.5,-6.7 -28.9,-19.1 -58.3,-38.9 -81.6,-65.5"
         style="fill:#e49963;fill-opacity:1;fill-rule:nonzero;stroke:none"
         transform="matrix(0.13333333,0,0,-0.13333333,0,2666.6667)" />
      <path
         id="path46"
         d="m 10870.5,4002.6 c -23.1,-26.5 -26.1,-56.2 -14.6,-87.9 l 0.2,-0.5 c 26,-58.5 94.3,-123.6 173,-188.8 10.2,-8.5 19.3,-16.4 27.4,-23.7 2.1,-1.8 4.2,-3.7 6.2,-5.6 1.7,-1.4 3.3,-2.9 4.8,-4.3 75.9,-70 47.4,-86 183.7,-228 155.5,-161.8 262.6,-164.7 293,-149.9 25.8,12.5 -26.5,98.3 -84.6,194.8 -30.2,11.1 -170.8,68.2 -277.1,204.2 -93.7,119.5 -156.1,273 -219.9,361.9 -3.5,-2.1 -7.1,-4.4 -10.5,-6.7 -28.9,-19.1 -58.3,-38.9 -81.6,-65.5"
         style="fill:#c65447;fill-opacity:1;fill-rule:nonzero;stroke:none"
         transform="matrix(0.13333333,0,0,-0.13333333,0,2666.6667)" />
      <path
         id="path47"
         d="m 13273.3,4188.7 c 18.4,-91.9 149.5,-76.6 296,-40.8 146.5,35.8 111.7,-6.8 320.2,16.3 208.4,23.1 271.6,100.8 278,131.8 5.6,27.5 -97.4,37.2 -207.9,50 -13.9,1.5 -27.8,3.2 -41.8,5 -124.7,15.6 -216.1,96.1 -329.4,162.2 -107.3,62.6 -267.5,317.8 -267.5,317.8 l -285.9,-22.7 c 0,0 150,-227.9 208.1,-326.9 34.1,-58.3 32.3,-135.4 28,-194.9 -2.2,-32.3 -4.3,-65.4 2.2,-97.8"
         style="fill:#e49963;fill-opacity:1;fill-rule:nonzero;stroke:none"
         transform="matrix(0.13333333,0,0,-0.13333333,0,2666.6667)" />
      <path
         id="path48"
         d="m 13569.3,4147.9 c 146.5,35.8 111.7,-6.8 320.2,16.3 208.4,23.1 271.6,100.8 278,131.8 5.6,27.5 -97.4,37.2 -207.9,50 l -1,-2.2 c 0,0 -125,-88.6 -298.6,-92.8 -141.4,-3.4 -291.2,37.1 -388.9,35.5 -2.2,-32.3 -4.3,-65.4 2.2,-97.8 18.4,-91.9 149.5,-76.6 296,-40.8"
         style="fill:#c65447;fill-opacity:1;fill-rule:nonzero;stroke:none"
         transform="matrix(0.13333333,0,0,-0.13333333,0,2666.6667)" />
      <path
         id="path49"
         d="m 12637.2,8388 c 0,0 68.1,166.9 143,173.7 74.9,6.8 313.4,44.3 330.4,10.3 17,-34.1 0,-156.7 -51.1,-201 -51.1,-44.3 -367.8,-115.8 -367.8,-115.8 l -54.5,132.8"
         style="fill:#e49963;fill-opacity:1;fill-rule:nonzero;stroke:none"
         transform="matrix(0.13333333,0,0,-0.13333333,0,2666.6667)" />
      <path
         id="path50"
         d="m 12177.6,6016.9 -616.1,-1658.3 c 0,0 -94.7,-9.1 -185.5,17 -83.5,24.1 -179.2,87.3 -179.2,87.3 0,0 152.9,1592.2 433.1,1923.4 280.2,331.2 547.7,-369.4 547.7,-369.4"
         style="fill:#aa413e;fill-opacity:1;fill-rule:nonzero;stroke:none"
         transform="matrix(0.13333333,0,0,-0.13333333,0,2666.6667)" />
      <path
         id="path51"
         d="m 9740.47,6687.8 c 0,0 1354.73,635.4 2165.43,471.3 406.7,-82.4 1580.5,-2486.3 1580.5,-2486.3 0,0 -26.7,-35.5 -99.8,-62.9 -67.9,-25.5 -232.4,-23.9 -232.4,-23.9 0,0 -1070,917.1 -1197.3,1184.6 -127.4,267.5 -178.4,522.3 -305.7,496.8 -127.4,-25.5 -1643.2,-624.1 -1987.15,-267.5 -343.92,356.7 -253.98,820.1 -253.98,820.1 l 330.4,-132.2"
         style="fill:#c65447;fill-opacity:1;fill-rule:nonzero;stroke:none"
         transform="matrix(0.13333333,0,0,-0.13333333,0,2666.6667)" />
      <path
         id="path52"
         d="m 10822.5,9472.9 c 28.2,58.4 59.9,162.1 75.3,346.9 -2.4,-18.4 -34.2,-251.5 -123.9,-383.5 -368.2,-241.7 -1073.96,-1048.9 -1060,-1201.9 0,0 -248.6,421.7 -252.87,424.2 0,0 -458.59,583.1 84.92,917.1 276.23,169.8 274.83,387.7 263.28,577 -11.63,189.3 160.96,1005.2 714.27,792 0,0 88.8,39.4 128.6,33.5 0,0 -32.5,-6.2 -49,-23.3 64.2,3.8 231.3,-37.9 316.3,-193.8 96.1,-176.1 214.9,-1001.2 -96.9,-1288.2"
         style="fill:#163560;fill-opacity:1;fill-rule:nonzero;stroke:none"
         transform="matrix(0.13333333,0,0,-0.13333333,0,2666.6667)" />
      <path
         id="path53"
         d="m 10752.1,9424.3 c 1.9,-0.8 -177.7,-94.1 -312.9,-57.1 -127.1,34.6 -210.1,199.4 -208.4,199.8 53.9,10.7 69.4,84.7 68.2,402.5 l 24.4,-4.8 409.1,-81 c 0,0 -9.3,-128.8 -9.6,-250.1 -0.2,-101.8 5.9,-198.4 29.2,-209.3"
         style="fill:#e49963;fill-opacity:1;fill-rule:nonzero;stroke:none"
         transform="matrix(0.13333333,0,0,-0.13333333,0,2666.6667)" />
      <path
         id="path54"
         d="m 10732.5,9883.7 c 0,0 -9.3,-128.8 -9.6,-250.1 -228.9,6.5 -349.9,215.3 -399.5,331.1 l 409.1,-81"
         style="fill:#d68d5d;fill-opacity:1;fill-rule:nonzero;stroke:none"
         transform="matrix(0.13333333,0,0,-0.13333333,0,2666.6667)" />
      <path
         id="path55"
         d="m 10281.1,10009.2 c 0,0 -120,189.6 -148.7,351.7 -20.6,115.7 38.3,544.7 469.4,482.9 0,0 125.2,-12.3 242.9,-91.8 93.6,-63.2 228.7,-199.7 77.6,-574 l -39.2,-126.4 -602,-42.4"
         style="fill:#163560;fill-opacity:1;fill-rule:nonzero;stroke:none"
         transform="matrix(0.13333333,0,0,-0.13333333,0,2666.6667)" />
      <path
         id="path56"
         d="m 10728.5,9727.9 c 0,0 -532.2,101.2 -464.1,431.6 68.1,330.5 45.2,566.1 387.9,515.5 342.7,-50.6 382.6,-190.3 386.7,-306.1 4.1,-115.8 -170.3,-658.8 -310.5,-641"
         style="fill:#e49963;fill-opacity:1;fill-rule:nonzero;stroke:none"
         transform="matrix(0.13333333,0,0,-0.13333333,0,2666.6667)" />
      <path
         id="path57"
         d="m 10895.6,10633.1 c 0,0 -225.6,-357.6 -460.3,-368.7 -234.8,-11.1 -319,68.6 -319,68.6 0,0 148.9,170.9 233.5,400.6 0,0 474.5,106.6 545.8,-100.5"
         style="fill:#163560;fill-opacity:1;fill-rule:nonzero;stroke:none"
         transform="matrix(0.13333333,0,0,-0.13333333,0,2666.6667)" />
      <path
         id="path58"
         d="m 10853.1,10609.1 c 0,0 90.5,-109.1 99.5,-198.7 9,-89.6 12.1,-265.2 63.8,-269.8 0,0 136.9,240.8 44.8,415.3 -97.6,185 -208.1,53.2 -208.1,53.2"
         style="fill:#163560;fill-opacity:1;fill-rule:nonzero;stroke:none"
         transform="matrix(0.13333333,0,0,-0.13333333,0,2666.6667)" />
      <path
         id="path59"
         d="m 9545.95,7967.1 c -53.42,224 128.32,658.7 318.04,1018.6 172.11,326.2 350.81,590.8 366.81,581.3 454,-269.5 495.1,-45.4 495.1,-45.4 0,0 412.4,-54.8 529.1,-255.8 161.5,-278 337.4,-1112.1 510.3,-1099.8 79.3,5.7 877.5,305.7 877.5,305.7 0,0 133,-124.5 107.6,-277.4 0,0 -394.2,-263.9 -727.5,-432.3 -176.3,-89.1 -335.6,-151.5 -410.5,-133.8 -151.9,35.8 -389,387.8 -517.2,595 l -0.9,1.4 c -163.5,-925.9 58.9,-1136.8 -53.7,-1234.4 -118.9,-103.1 -288.8,49.1 -662.4,-112.9 -245.1,-106.3 -585.21,-260 -814.17,-286.8 -120.07,-14.1 -209.67,6.8 -238.89,87.9 -84.92,235.7 322.71,861.6 220.81,1288.7"
         style="fill:#699dee;fill-opacity:1;fill-rule:nonzero;stroke:none"
         transform="matrix(0.13333333,0,0,-0.13333333,0,2666.6667)" />
      <path
         id="path60"
         d="m 10652.1,9952.6 c 0,0 1.2,-44 107,-59.2 0,0 88.7,-12.7 95.6,34 0,0 -78.2,50.4 -202.6,25.2"
         style="fill:#ffffff;fill-opacity:1;fill-rule:nonzero;stroke:none"
         transform="matrix(0.13333333,0,0,-0.13333333,0,2666.6667)" />
      <path
         id="path61"
         d="m 9325.14,6678.4 c 29.22,-81.1 118.82,-102 238.89,-87.9 158.47,69.1 843.07,334.3 835.37,514 -11.4,266 -131.6,274.5 -46.7,602.9 68.2,263.7 -564.33,754 -665.21,860.6 -189.72,-359.9 -194.96,-376.9 -141.54,-600.9 101.9,-427.1 -305.73,-1053 -220.81,-1288.7"
         style="fill:#4a75cb;fill-opacity:1;fill-rule:nonzero;stroke:none"
         transform="matrix(0.13333333,0,0,-0.13333333,0,2666.6667)" />
      <path
         id="path62"
         d="m 11095.2,8223.2 c 128.2,-207.2 365.3,-559.2 517.2,-595 74.9,-17.7 234.2,44.7 410.5,133.8 -128.7,-33.2 -253.7,-32.3 -375.1,-20.6 -131.6,12.8 -169.9,174.1 -377.9,416.1 -135,157 -168.1,117.5 -174.7,65.7"
         style="fill:#4a75cb;fill-opacity:1;fill-rule:nonzero;stroke:none"
         transform="matrix(0.13333333,0,0,-0.13333333,0,2666.6667)" />
      <path
         id="path63"
         d="m 10461,7713.8 c 0,0 114.6,89.2 222.9,67.9 108.3,-21.2 161.4,-95.5 157.1,-129.5 -4.2,-33.9 -61.5,-129.5 -144.3,-138 -82.8,-8.5 -318.5,51 -318.5,51 l 82.8,148.6"
         style="fill:#e49963;fill-opacity:1;fill-rule:nonzero;stroke:none"
         transform="matrix(0.13333333,0,0,-0.13333333,0,2666.6667)" />
      <path
         id="path64"
         d="m 10230.8,9567 c 0,0 -441.44,-27.2 -594.27,-240.4 -215.14,-300 -588.8,-1525 -486.89,-1805.3 l 1343.16,5.7 c 0,0 32.6,152.1 -12.7,225.7 -45.3,73.6 -781.29,192.5 -815.27,226.5 -33.96,34 424.57,662.4 424.57,764.3 0,101.9 141.4,823.5 141.4,823.5"
         style="fill:#699dee;fill-opacity:1;fill-rule:nonzero;stroke:none"
         transform="matrix(0.13333333,0,0,-0.13333333,0,2666.6667)" />
      <path
         id="path65"
         d="m 10871.9,8136.4 h 1623.6 l -293.1,-1022.3 h -1626.2 l 295.7,1022.3"
         style="fill:#1c468a;fill-opacity:1;fill-rule:nonzero;stroke:none"
         transform="matrix(0.13333333,0,0,-0.13333333,0,2666.6667)" />
      <path
         id="path66"
         d="m 12196.8,7153.9 v -39.8 h -2125.9 v 39.8 h 2125.9"
         style="fill:#163560;fill-opacity:1;fill-rule:nonzero;stroke:none"
         transform="matrix(0.13333333,0,0,-0.13333333,0,2666.6667)" />
      <path
         id="path67"
         d="m 11555.9,7641.8 c 10.3,35.9 47.8,65.1 83.7,65.1 35.9,0 56.7,-29.2 46.4,-65.1 -10.3,-35.9 -47.8,-65.1 -83.7,-65.1 -35.9,0 -56.7,29.2 -46.4,65.1"
         style="fill:#163560;fill-opacity:1;fill-rule:nonzero;stroke:none"
         transform="matrix(0.13333333,0,0,-0.13333333,0,2666.6667)" />
      <path
         id="path68"
         d="m 12818.5,8734.2 2.2,-50.8 1.7,-37.3 10.3,-237.9 0.9,-20.3 5.2,-118.9 h 327.7 l 7.4,118.9 1.3,20.3 14.8,237.9 2.4,37.3 4.1,67.5 -0.9,2 c 0,0 -76.3,13.9 -122.2,-15.3 -24.7,-15.7 -50.7,-6.4 -75.9,2.9 -21.5,8 -42.5,16 -61.7,8.3 -41.7,-16.7 -44.5,-37.5 -77.9,-23.7 -9.9,4.2 -24.2,7.1 -39.4,9.1"
         style="fill:#e37970;fill-opacity:1;fill-rule:nonzero;stroke:none"
         transform="matrix(0.13333333,0,0,-0.13333333,0,2666.6667)" />
      <path
         id="path69"
         d="m 13166.5,8269 h -327.7 l -1,22.5 v 0 l 1,-22.5 h 327.7 l 7.4,118.9 1.3,20.3 14.8,237.9 2.4,37.3 4.1,67.5 -0.9,2 c 0,0 -18.1,3.3 -42,3.3 -25.1,0 -56.7,-3.6 -80.2,-18.6 -9.7,-6.1 -19.5,-8.4 -29.4,-8.4 -15.5,0 -31.1,5.6 -46.5,11.3 -15.3,5.7 -30.4,11.4 -44.8,11.4 -5.7,0 -11.4,-0.9 -16.9,-3.1 -32.2,-12.9 -41.2,-28.2 -59,-28.2 -5.2,0 -11.3,1.3 -18.9,4.5 -9.9,4.2 -24.2,7.1 -39.4,9.1 l 2.2,-50.8 1.7,-37.3 3.4,-79.3 v 0 l -3.4,79.3 -1.7,37.3 -2.2,50.8 -1.5,35.4 h 380.7 l -1.2,-18.7 -4.1,-67.5 -2.4,-37.3 -14.8,-237.9 -1.3,-20.3 -7.4,-118.9"
         style="fill:#ded3da;fill-opacity:1;fill-rule:nonzero;stroke:none"
         transform="matrix(0.13333333,0,0,-0.13333333,0,2666.6667)" />
      <path
         id="path70"
         d="m 13166.5,8269 h -327.7 l -1,22.5 -4.2,96.4 -0.9,20.3 -6.9,158.6 -3.4,79.3 -1.7,37.3 -2.2,50.8 c 15.2,-2 29.5,-4.9 39.4,-9.1 7.6,-3.2 13.7,-4.5 18.9,-4.5 17.8,0 26.8,15.3 59,28.2 5.5,2.2 11.2,3.1 16.9,3.1 14.4,0 29.5,-5.7 44.8,-11.4 15.4,-5.7 31,-11.3 46.5,-11.3 9.9,0 19.7,2.3 29.4,8.4 23.5,15 55.1,18.6 80.2,18.6 23.9,0 42,-3.3 42,-3.3 l 0.9,-2 -4.1,-67.5 -2.4,-37.3 -14.8,-237.9 -1.3,-20.3 -7.4,-118.9"
         style="fill:#e37970;fill-opacity:1;fill-rule:nonzero;stroke:none"
         transform="matrix(0.13333333,0,0,-0.13333333,0,2666.6667)" />
      <path
         id="path71"
         d="M 13196.2,8769.6 H 12815 c -0.1,2 -0.2,3.9 -0.2,5.8 0,105.4 85.4,190.8 190.8,190.8 105.3,0 190.7,-85.4 190.7,-190.8 0,-1.9 -0.1,-3.8 -0.1,-5.8"
         style="fill:#ded3da;fill-opacity:1;fill-rule:nonzero;stroke:none"
         transform="matrix(0.13333333,0,0,-0.13333333,0,2666.6667)" />
      <path
         id="path72"
         d="m 13038.6,8299.2 16.7,2 c -1,10.5 -54.4,716.1 -62.7,763.1 -9.1,51.8 -59.3,67.1 -61.4,67.7 l -0.9,0.2 -266.9,47.3 -2.9,-16.4 266.3,-47.2 c 4.5,-1.4 42.4,-14.7 49.4,-54.5 8.2,-46.4 62.2,-759.7 62.4,-762.2"
         style="fill:#80bdcc;fill-opacity:1;fill-rule:nonzero;stroke:none"
         transform="matrix(0.13333333,0,0,-0.13333333,0,2666.6667)" />
      <path
         id="path73"
         d="m 12820.7,8683.4 1.7,-37.3 10.3,-237.9 h 342.5 l 14.8,237.9 2.4,37.3 h -371.7"
         style="fill:#163560;fill-opacity:1;fill-rule:nonzero;stroke:none"
         transform="matrix(0.13333333,0,0,-0.13333333,0,2666.6667)" />
      <path
         id="path74"
         d="M 28680.3,3166.3 H 1319.72 c -17.98,0 -32.68,14.7 -32.68,32.7 v 22.1 c 0,18 14.7,32.7 32.68,32.7 H 28680.3 c 18,0 32.7,-14.7 32.7,-32.7 V 3199 c 0,-18 -14.7,-32.7 -32.7,-32.7"
         style="fill:#283250;fill-opacity:1;fill-rule:nonzero;stroke:none"
         transform="matrix(0.13333333,0,0,-0.13333333,0,2666.6667)" />
      <path
         id="path75"
         d="m 24521.5,4740.6 c 0,8.5 0.4,16.9 1.2,25.1 l -1092.2,183.2 5.8,34.2 1092.2,-183.2 c 13.3,56 44.9,104.8 88.2,139.8 l -662.9,947 28.5,19.8 636,-908.5 -343,1029 32.9,10.9 356,-1067.9 c 29.2,14.5 61.5,23.4 95.7,25.7 v 1140.8 h 34.7 V 4995.7 c 19.8,-1.3 39,-4.8 57.4,-10.4 l 354,986.5 32.6,-11.7 -336.9,-938.9 677.4,779.9 26.2,-22.8 -706.1,-812.8 c 36.9,-20.1 68.3,-49 91.4,-83.9 l 40,6.9 987.3,500.5 15.7,-30.9 -886.9,-449.7 988.8,170.1 5.9,-34.2 -1099.8,-189.1 -28.9,-14.6 c 13.1,-30.7 20.3,-64.5 20.3,-100 0,-6.8 -0.3,-13.6 -0.9,-20.3 l 1091.5,-161.9 -5.1,-34.3 -1091.4,161.9 c -2.2,-10.3 -5.1,-20.4 -8.5,-30.2 l 996.6,-428.1 -13.7,-31.9 -996.7,428.2 -0.5,-1.1 782.3,-789.1 -24.6,-24.4 -776.3,783.1 c -15.8,-22.2 -35,-41.8 -56.9,-57.9 l 574,-903.1 -29.2,-18.6 -574.1,903 c -5,-2.7 -10.2,-5.2 -15.4,-7.7 143.4,-377.5 406,-1069.3 412.5,-1088.6 l -32.9,-11 c -5.7,17.1 -237.1,626.7 -412,1087.3 -23.6,-7.2 -48.6,-11 -74.5,-11 -4.2,0 -8.4,0.1 -12.6,0.3 l 90.6,-1095.7 -34.5,-2.8 -91.3,1102.7 c -11,2.1 -21.8,4.9 -32.2,8.3 C 24516.7,4054 24279.8,3470.6 24273.5,3452 l -32.9,11 c 6.5,19.3 275.5,681.4 424.4,1047.8 -3.2,1.5 -6.4,3.1 -9.5,4.8 l -609.2,-963.4 -29.3,18.6 609.2,963.4 c -24.2,17.8 -45.3,39.8 -62,64.9 l -904.2,-627 -19.7,28.5 906.6,628.7 c -16.3,33.6 -25.4,71.4 -25.4,111.3"
         style="fill:#415da5;fill-opacity:1;fill-rule:nonzero;stroke:none"
         transform="matrix(0.13333333,0,0,-0.13333333,0,2666.6667)" />
      <path
         id="path76"
         d="m 24777.2,6032.5 c 712.4,0 1291.9,-579.6 1291.9,-1291.9 0,-712.3 -579.5,-1291.8 -1291.9,-1291.8 -230.2,0 -456.1,61.3 -653.4,177.2 -191.6,112.6 -352,273.6 -463.8,465.7 -114.2,196.2 -174.6,420.6 -174.6,648.9 0,712.3 579.5,1291.9 1291.8,1291.9 z m 0,-2791.8 c 827.1,0 1500,672.9 1500,1499.9 0,827.1 -672.9,1499.9 -1500,1499.9 -827,0 -1499.9,-672.8 -1499.9,-1499.9 0,-265.1 70.2,-525.7 202.9,-753.6 129.7,-222.9 315.8,-409.8 538.2,-540.4 229.2,-134.7 491.6,-205.9 758.8,-205.9"
         style="fill:#2c3a64;fill-opacity:1;fill-rule:nonzero;stroke:none"
         transform="matrix(0.13333333,0,0,-0.13333333,0,2666.6667)" />
      <path
         id="path77"
         d="m 19695.2,4740.6 c 0,8.5 0.4,16.9 1.3,25.1 l -1092.2,183.2 5.7,34.2 1092.2,-183.2 c 13.3,56 44.9,104.8 88.3,139.8 l -662.9,947 28.4,19.8 636,-908.5 -343,1029 32.9,10.9 356,-1067.9 c 29.2,14.5 61.5,23.4 95.7,25.7 v 1140.8 h 34.7 V 4995.7 c 19.8,-1.3 39,-4.8 57.4,-10.4 l 354,986.5 32.7,-11.7 -337,-938.9 677.5,779.9 26.1,-22.8 -706.1,-812.8 c 37,-20.1 68.4,-49 91.5,-83.9 l 39.9,6.9 987.3,500.5 15.7,-30.9 -886.9,-449.7 988.8,170.1 5.9,-34.2 -1099.8,-189.1 -28.8,-14.6 c 13,-30.7 20.2,-64.5 20.2,-100 0,-6.8 -0.3,-13.6 -0.8,-20.3 l 1091.5,-161.9 -5.1,-34.3 -1091.5,161.9 c -2.2,-10.3 -5.1,-20.4 -8.5,-30.2 l 996.6,-428.1 -13.6,-31.9 -996.7,428.2 -0.6,-1.1 782.3,-789.1 -24.6,-24.4 -776.3,783.1 c -15.8,-22.2 -35,-41.8 -56.9,-57.9 l 574,-903.1 -29.2,-18.6 -574.1,903 c -5,-2.7 -10.2,-5.2 -15.4,-7.7 143.4,-377.5 406,-1069.3 412.5,-1088.6 l -32.9,-11 c -5.7,17.1 -237,626.7 -412,1087.3 -23.6,-7.2 -48.5,-11 -74.4,-11 -4.3,0 -8.5,0.1 -12.7,0.3 l 90.6,-1095.7 -34.5,-2.8 -91.3,1102.7 c -11,2.1 -21.8,4.9 -32.2,8.3 C 19690.5,4054 19453.6,3470.6 19447.2,3452 l -32.9,11 c 6.5,19.3 275.5,681.4 424.5,1047.8 -3.3,1.5 -6.4,3.1 -9.6,4.8 l -609.2,-963.4 -29.3,18.6 609.3,963.4 c -24.3,17.8 -45.3,39.8 -62,64.9 l -904.2,-627 -19.8,28.5 906.7,628.7 c -16.3,33.6 -25.5,71.4 -25.5,111.3"
         style="fill:#415da5;fill-opacity:1;fill-rule:nonzero;stroke:none"
         transform="matrix(0.13333333,0,0,-0.13333333,0,2666.6667)" />
      <path
         id="path78"
         d="m 19951,6032.5 c 712.3,0 1291.8,-579.6 1291.8,-1291.9 0,-712.3 -579.5,-1291.8 -1291.8,-1291.8 -230.2,0 -456.2,61.3 -653.5,177.2 -191.6,112.6 -352,273.6 -463.8,465.7 -114.2,196.2 -174.5,420.6 -174.5,648.9 0,712.3 579.5,1291.9 1291.8,1291.9 z m 0,-2791.8 c 827,0 1499.9,672.9 1499.9,1499.9 0,827.1 -672.9,1499.9 -1499.9,1499.9 -827.1,0 -1499.9,-672.8 -1499.9,-1499.9 0,-265.1 70.1,-525.7 202.8,-753.6 129.7,-222.9 315.8,-409.8 538.2,-540.4 229.2,-134.7 491.6,-205.9 758.9,-205.9"
         style="fill:#2c3a64;fill-opacity:1;fill-rule:nonzero;stroke:none"
         transform="matrix(0.13333333,0,0,-0.13333333,0,2666.6667)" />
      <path
         id="path79"
         d="m 22874.5,4979.4 172,33.5 c 0,0 -411.2,1626.2 -354.8,1760.5 45.7,111.4 519.6,192 751.9,386.7 49.7,41.6 87.3,87.2 108.8,139.6 123.5,302.1 -77.9,526.4 -77.9,526.4 0,0 -421.6,-96.7 -804.3,-260.5 -272.5,-116.9 -525,-268.6 -594.8,-444.5 -167.8,-425.6 799.1,-2141.7 799.1,-2141.7"
         style="fill:#1e3d70;fill-opacity:1;fill-rule:nonzero;stroke:none"
         transform="matrix(0.13333333,0,0,-0.13333333,0,2666.6667)" />
      <path
         id="path80"
         d="m 22406.4,4728.7 c 2.7,16.9 14,32.1 30.6,41.2 40.9,22.5 124.7,54.9 187.4,138.6 35.3,47.1 181,186.3 181,186.3 l 0.9,0.4 c 3.8,0.9 22.8,0.7 115.3,-37.2 47.7,-19.5 97.4,70.2 97.4,70.2 0,0 15.2,-6.1 29.3,-21.1 11.3,-11.8 21.8,-29.2 23.4,-53.8 2.3,-34.5 38,-90.5 64.6,-127.7 16.1,-22.6 28.8,-38.3 28.8,-38.3 0,0 10,-19.4 -71.3,-50.3 l -97.2,-25.2 c -33.8,-3.8 -60,-1.7 -94.4,-6.5 -52.2,-7.2 -70.8,-31.7 -74.4,-37.1 l -0.7,-1.1 -413,-106.7 c -13.8,10.4 -11.7,43.4 -7.7,68.3"
         style="fill:#415da5;fill-opacity:1;fill-rule:nonzero;stroke:none"
         transform="matrix(0.13333333,0,0,-0.13333333,0,2666.6667)" />
      <path
         id="path81"
         d="m 23079.2,5741.7 -1584.1,1014.2 1262,-2021.7 z m -2092.9,1337.6 173.9,180 -15.3,31.4 27.6,-18.7 0.2,0.2 0.4,-0.6 1969.5,-1331.6 439,1373.3 148.7,-47.5 -453,-1416.9 1516.3,-1025.2 c 70,-47.3 41.7,-156.4 -42.5,-163.7 l -1828.2,-159 -13.6,155.5 1641.9,142.8 -1336,855.3 -366.4,-1145.8 -148.6,47.5 41.9,131.2 -99.6,-64.3 -1656.2,2456.1"
         style="fill:#ee9849;fill-opacity:1;fill-rule:nonzero;stroke:none"
         transform="matrix(0.13333333,0,0,-0.13333333,0,2666.6667)" />
      <path
         id="path82"
         d="m 20650.8,6680.6 c 28.7,72.3 106.8,110 180.1,90 227.4,590 303,784.1 330.1,850.9 l -185.1,117.8 c -34.6,2.5 -68.8,16.1 -97,42.5 -52.8,49.4 -65,130.7 -29,193.4 47.5,82.9 154.6,104.6 230,50.3 55.7,-40.1 77.4,-109.5 59.7,-171.9 l 367.9,-234.1 c 58.8,34 136.6,28.3 190.5,-24.3 50.5,-49.3 61.6,-128.3 27,-189.8 -47.2,-83.7 -155,-105.9 -230.8,-51.3 -33,23.8 -54,57.9 -62,94.8 l -138.6,88.2 c -49.5,-123.4 -218.5,-538.8 -326.8,-819.7 L 20033,4700.3 c -18,-38.8 -63.4,-56.7 -103,-40.5 -40.8,16.6 -60.5,63 -44.2,103.9 l 765,1916.9"
         style="fill:#d57912;fill-opacity:1;fill-rule:nonzero;stroke:none"
         transform="matrix(0.13333333,0,0,-0.13333333,0,2666.6667)" />
      <path
         id="path83"
         d="m 21956.6,4278.2 h 143.4 l 682.1,310.9 25.2,-55.3 -560.9,-255.6 h 48.3 c 39.8,0 72.3,-32.5 72.3,-72.2 0,-39.8 -32.5,-72.3 -72.3,-72.3 h -338.1 c -39.7,0 -72.2,32.5 -72.2,72.3 0,39.7 32.5,72.2 72.2,72.2"
         style="fill:#415da5;fill-opacity:1;fill-rule:nonzero;stroke:none"
         transform="matrix(0.13333333,0,0,-0.13333333,0,2666.6667)" />
      <path
         id="path84"
         d="m 23254.5,6450.1 v 0 c 17.3,49.4 71.4,75.4 120.9,58 l 86.4,-30.4 c 67.9,-23.8 142.5,-19.3 206.9,12.8 315.2,157.1 698.9,236.6 1143.1,236.6 5.3,0 10.7,0 16,0 198.4,-0.9 553.3,-49.4 705.2,-72.1 41.6,-6.2 72.2,-41.8 72.2,-83.7 v -54.9 c 0,-15.8 -14.5,-27.6 -30,-24.3 l -0.5,0.1 c -280.8,58.9 -1251.8,218.2 -1953.5,-205.8 -20,-12 -44.3,-14.5 -66.3,-6.8 l -263,92.4 c -31.9,11.2 -48.7,46.2 -37.4,78.1"
         style="fill:#d57912;fill-opacity:1;fill-rule:nonzero;stroke:none"
         transform="matrix(0.13333333,0,0,-0.13333333,0,2666.6667)" />
      <path
         id="path85"
         d="m 23147.3,7445.6 c 71.5,69.4 479,2.2 557,-6.4 78.1,-8.7 370.7,54.1 450.9,45.5 80.2,-8.7 52,-136.6 52,-136.6 -123.5,-307.8 -515.9,-173.4 -570.1,-127.9 -54.1,45.5 -244.9,69.4 -387.9,82.4 -143.1,13 -173.4,73.7 -101.9,143"
         style="fill:#415da5;fill-opacity:1;fill-rule:nonzero;stroke:none"
         transform="matrix(0.13333333,0,0,-0.13333333,0,2666.6667)" />
      <path
         id="path86"
         d="m 22774.5,4922.7 c 215.5,0 390.1,-174.7 390.1,-390.2 0,-215.4 -174.6,-390.1 -390.1,-390.1 -215.5,0 -390.2,174.7 -390.2,390.1 0,215.5 174.7,390.2 390.2,390.2"
         style="fill:#2c3a64;fill-opacity:1;fill-rule:nonzero;stroke:none"
         transform="matrix(0.13333333,0,0,-0.13333333,0,2666.6667)" />
      <path
         id="path87"
         d="m 21217.3,7981.4 1.9,0.4 c 130,70.9 821.3,451.7 851.8,542.9 18.7,56.4 106,294 201.4,504.8 24.1,52.4 56.2,47 80.4,94 52.3,100.7 249.1,17.5 286.7,35 123.5,56.4 259.9,104.7 259.9,-18.9 0,0 -34.9,-89.9 -88.6,-214.8 -21.5,-49.7 -45.7,-104.7 -71.2,-162.5 -107.4,-235 -247,-503.5 -343.7,-551.8 -156.7,-77.2 -750,-328.3 -981.3,-370.6 l 0.3,-0.4 c 0,0 -111.4,-109.8 -136.2,-130.5 -24.7,-20.7 -80.3,-44 -133.9,-25.1 -53.5,19 -52.1,107.5 -55,130 -2.9,22.5 6.9,132.7 127.5,167.5"
         style="fill:#a86337;fill-opacity:1;fill-rule:nonzero;stroke:none"
         transform="matrix(0.13333333,0,0,-0.13333333,0,2666.6667)" />
      <path
         id="path88"
         d="m 22291.2,9582.1 c 0,0 38.2,-85.2 93.3,-182 3,-5 6,-10.2 9,-15.5 42.6,-73.3 94.3,-150.9 145.6,-200.7 l 463.2,216.2 c 0,0 -211.5,164.1 -311,327.2 -10.3,16.7 -19.5,33.4 -26.7,50.1 l -90,3.3 -283.4,-198.6"
         style="fill:#b77446;fill-opacity:1;fill-rule:nonzero;stroke:none"
         transform="matrix(0.13333333,0,0,-0.13333333,0,2666.6667)" />
      <path
         id="path89"
         d="m 22291.2,9582.1 c 0,0 38.2,-85.2 93.3,-182 3,-5 6,-10.2 9,-15.5 161.3,86.8 258.4,258.7 297.8,342.7 -10.3,16.7 -19.5,33.4 -26.7,50.1 l -90,3.3 -283.4,-198.6"
         style="fill:#a86337;fill-opacity:1;fill-rule:nonzero;stroke:none"
         transform="matrix(0.13333333,0,0,-0.13333333,0,2666.6667)" />
      <path
         id="path90"
         d="m 22154.9,9588.6 c 0,0 533.1,-83.6 580.1,249.3 46.9,332.8 147.4,546.2 -191.1,613.6 -338.4,67.4 -422.6,-50.2 -465.3,-157.5 -42.7,-107.3 -61.2,-675 76.3,-705.4"
         style="fill:#b77446;fill-opacity:1;fill-rule:nonzero;stroke:none"
         transform="matrix(0.13333333,0,0,-0.13333333,0,2666.6667)" />
      <path
         id="path91"
         d="m 22906.6,10512.1 c 0,0 -24.2,-4.9 -43.7,-25.2 l -0.3,0.4 c -1.4,71.7 -71.8,144.3 -71.8,144.3 33.8,-42.5 22.8,-121.3 22.8,-121.3 -100.4,171.8 -589.2,36.7 -635,25.3 -45.8,-11.4 -78.2,57.3 -78.2,57.3 -72.3,-62.7 -99.9,-216.1 -39.9,-316.4 60,-100.2 254.5,-247.7 310.5,-219.7 56,28.1 56.1,-29.9 53.2,-111.3 -2.9,-81.5 138.2,-218.4 237.7,-238.3 80.1,-16 86.4,38.8 108.2,73.8 5.4,8.7 11.9,16.7 19.5,23.6 109.1,98.5 169.2,295.4 144.8,489.3 -9.7,77.1 -41.6,141.8 -59.4,173.1 7.1,12.3 21.2,35.4 31.6,45.1"
         style="fill:#2c3a64;fill-opacity:1;fill-rule:nonzero;stroke:none"
         transform="matrix(0.13333333,0,0,-0.13333333,0,2666.6667)" />
      <path
         id="path92"
         d="m 22267.4,9054.6 c 41.6,-13.4 142.3,-51 169.2,-96.7 28.2,-45.6 323.6,82 358.5,201.4 -84.6,92.7 -229.6,171.9 -314.2,145.1 -49.7,-14.8 -130.2,-120.9 -213.5,-249.8"
         style="fill:#d57912;fill-opacity:1;fill-rule:nonzero;stroke:none"
         transform="matrix(0.13333333,0,0,-0.13333333,0,2666.6667)" />
      <path
         id="path93"
         d="m 22421.4,6578.8 c 48,95.9 611.1,1157.3 611.1,1157.3 5.7,-0.4 848.7,530.1 848.7,530.1 0,0 145.9,-168.4 190.1,-419.3 16.1,-63 29.9,-135.2 36.8,-215.7 25.2,-293.7 -1240.6,-1469 -1269.7,-1632.2 -68.8,-386.1 -485.2,-1181.3 -681.1,-1575.7 l -156,59.8 c 0,0 308.2,1871.9 420.1,2095.7"
         style="fill:#2a4e96;fill-opacity:1;fill-rule:nonzero;stroke:none"
         transform="matrix(0.13333333,0,0,-0.13333333,0,2666.6667)" />
      <path
         id="path94"
         d="m 22429.7,8864.8 134.4,-191.5 10.8,-24.2 279.3,-637.8 75.9,-299 c 2.9,-11.6 12.4,-20.3 24.2,-22.3 105.1,-17.7 319.7,-8.5 394,17.9 332.7,113.6 558,302.2 644.2,383.1 24.2,22.8 31.8,58.2 19.4,89.1 -252.3,628.3 -644,1040.4 -713.3,1117.5 -123.5,134.3 -447.1,244.4 -447.1,244.4 -88.6,-91.3 -405.5,-251.1 -405.5,-251.1 -69.8,-55 -16.3,-426.1 -16.3,-426.1"
         style="fill:#ee9849;fill-opacity:1;fill-rule:nonzero;stroke:none"
         transform="matrix(0.13333333,0,0,-0.13333333,0,2666.6667)" />
      <path
         id="path95"
         d="m 22574.9,8649.1 279.3,-637.8 c 212.1,428.4 77.8,1050 77.8,1050 0,0 -341,-295.4 -353.1,-318.2 -1.3,-4 -4,-38.9 -4,-94"
         style="fill:#d57912;fill-opacity:1;fill-rule:nonzero;stroke:none"
         transform="matrix(0.13333333,0,0,-0.13333333,0,2666.6667)" />
      <path
         id="path96"
         d="m 21311.7,7887 1.7,0.3 c 129.6,70.7 821.6,451.7 852,543 18.8,56.4 106,294 201.4,504.8 24.1,52.4 48.3,103.4 72.5,150.4 52.3,100.7 102,177.2 139.6,194.7 123.5,56.4 414.9,-111.5 414.9,-235 0,0 -34.9,-89.9 -88.6,-214.8 -21.5,-49.7 -45.7,-104.7 -71.2,-162.5 -107.4,-235 -247,-503.5 -343.7,-551.8 -156.7,-77.2 -750,-328.3 -981.3,-370.6 l 0.3,-0.4 c 0,0 -111.4,-109.8 -136.2,-130.5 -24.7,-20.8 -80.3,-44 -133.9,-25.1 -53.5,19 -65.3,91.3 -68.2,113.8 -3,22.5 -25.3,142.2 140.7,183.7"
         style="fill:#b77446;fill-opacity:1;fill-rule:nonzero;stroke:none"
         transform="matrix(0.13333333,0,0,-0.13333333,0,2666.6667)" />
      <path
         id="path97"
         d="m 22354.4,8933.3 c 117.2,-53 328,-156.3 485.7,-277.7 26.5,60 51.6,117.3 74,168.9 55.8,129.8 92.1,223.3 92.1,223.3 0,128.4 -302.9,302.9 -431.3,244.3 -39.1,-18.2 -90.7,-97.8 -145.1,-202.4 -25.1,-48.9 -50.3,-101.9 -75.4,-156.4"
         style="fill:#ee9849;fill-opacity:1;fill-rule:nonzero;stroke:none"
         transform="matrix(0.13333333,0,0,-0.13333333,0,2666.6667)" />
      <path
         id="path98"
         d="m 22228.6,4268.3 h -100.4 c -33.7,4.7 -58.5,13.3 -93,17.3 -52.4,6.1 -76.5,-12.9 -81.3,-17.3 l -1,-0.9 h -426.6 c -10.7,13.6 -0.4,45 9.7,68.1 6.8,15.7 21.6,27.6 39.9,32.2 45.2,11.6 134.4,21.9 216.1,87.3 46,36.8 221.9,135 221.9,135 l 1,0.3 c 3.8,-0.1 22.2,-5.1 102.2,-64.9 41.4,-30.8 111.9,43.6 111.9,43.6 0,0 13.3,-9.7 23.1,-27.8 8,-14.2 13.8,-33.7 9.2,-57.9 -6.4,-34 14.2,-97.1 30.6,-139.9 9.9,-25.9 18.3,-44.2 18.3,-44.2 0,0 4.8,-21.3 -81.6,-30.9"
         style="fill:#739cf3;fill-opacity:1;fill-rule:nonzero;stroke:none"
         transform="matrix(0.13333333,0,0,-0.13333333,0,2666.6667)" />
      <path
         id="path99"
         d="m 22252.1,4541.2 c -23.9,-14.9 -74.5,-44.3 -108.1,-48.2 -45.3,-5.2 -130.1,97 -130.1,97 l 1,0.3 c 3.8,-0.1 22.2,-5.1 102.2,-64.9 41.4,-30.8 111.9,43.6 111.9,43.6 0,0 13.3,-9.7 23.1,-27.8"
         style="fill:#415da5;fill-opacity:1;fill-rule:nonzero;stroke:none"
         transform="matrix(0.13333333,0,0,-0.13333333,0,2666.6667)" />
      <path
         id="path100"
         d="m 22228.6,4268.3 h -100.4 c -33.7,4.7 -58.5,13.3 -93,17.3 -52.4,6.1 -76.5,-12.9 -81.3,-17.3 l -1,-0.9 h -426.6 c -10.7,13.6 -0.4,45 9.7,68.1 12.9,10.2 16.6,-44.3 23.7,-53 7.2,-8.6 348.1,-3.1 367.8,9.5 19.6,12.7 78.7,34.9 161,17.4 71.7,-15.1 177.2,23.7 203.4,34 9.9,-25.9 18.3,-44.2 18.3,-44.2 0,0 4.8,-21.3 -81.6,-30.9"
         style="fill:#415da5;fill-opacity:1;fill-rule:nonzero;stroke:none"
         transform="matrix(0.13333333,0,0,-0.13333333,0,2666.6667)" />
    </g>
  </g>
</svg>
